<?xml version="1.0" encoding="utf-8"?>
<svg viewBox="0 0 384 512" width="384" height="512" xmlns="http://www.w3.org/2000/svg">
  <path fill="currentColor" d="M172.268 501.67C26.97 291.031 0 269.413 0 192 0 85.961 85.961 0 192 0s192 85.961 192 192c0 77.413-26.97 99.031-172.268 309.67-9.535 13.774-29.93 13.773-39.464 0z"/>
  <path fill="white" d="M 219.549 86.314 C 234.647 86.314 244.084 69.97 236.534 56.894 C 228.985 43.818 210.112 43.818 202.563 56.894 C 200.841 59.876 199.935 63.258 199.935 66.701 C 199.935 77.533 208.716 86.314 219.549 86.314 Z M 217.914 135.757 C 220.233 137.613 223.116 138.623 226.086 138.617 L 252.238 138.617 C 262.303 138.617 268.595 127.72 263.562 119.003 C 261.226 114.958 256.909 112.466 252.238 112.466 L 230.671 112.466 L 201.569 89.175 C 196.669 85.24 189.661 85.357 184.894 89.452 L 139.129 128.679 C 132.552 134.319 133.178 144.68 140.388 149.486 L 173.784 171.764 L 173.784 217.071 C 173.784 227.136 184.68 233.427 193.397 228.395 C 197.443 226.059 199.935 221.742 199.935 217.071 L 199.935 164.768 C 199.934 160.397 197.749 156.316 194.112 153.891 L 177.212 142.625 L 201.014 122.227 Z M 265.313 151.693 C 225.051 151.693 199.887 195.278 220.018 230.147 C 240.149 265.015 290.477 265.015 310.609 230.147 C 315.199 222.195 317.616 213.176 317.616 203.995 C 317.616 175.109 294.2 151.693 265.313 151.693 Z M 265.313 230.147 C 245.182 230.147 232.6 208.354 242.665 190.92 C 252.731 173.485 277.895 173.485 287.961 190.92 C 290.256 194.895 291.465 199.404 291.465 203.995 C 291.465 218.438 279.756 230.147 265.313 230.147 Z M 108.405 151.693 C 68.143 151.693 42.979 195.278 63.11 230.147 C 83.241 265.015 133.57 265.015 153.701 230.147 C 158.292 222.195 160.708 213.176 160.708 203.995 C 160.708 175.109 137.292 151.693 108.405 151.693 Z M 108.405 230.147 C 88.274 230.147 75.692 208.354 85.758 190.92 C 95.823 173.485 120.987 173.485 131.053 190.92 C 133.348 194.895 134.557 199.404 134.557 203.995 C 134.557 218.438 122.848 230.147 108.405 230.147 Z" style=""/>
</svg>